<mxfile host="app.diagrams.net" modified="2024-05-16T16:42:04.128Z" agent="Mozilla/5.0 (Windows NT 10.0; Win64; x64) AppleWebKit/537.36 (KHTML, like Gecko) Chrome/124.0.0.0 Safari/537.36" etag="67s7eVxayQlbTc6ryJvo" version="24.3.1" type="github">
  <diagram name="Page-1" id="92U2x0UfFZNvNGqr16Wk">
    <mxGraphModel dx="1313" dy="705" grid="1" gridSize="10" guides="1" tooltips="1" connect="1" arrows="1" fold="1" page="1" pageScale="1" pageWidth="850" pageHeight="1100" math="0" shadow="0">
      <root>
        <mxCell id="0" />
        <mxCell id="1" parent="0" />
        <mxCell id="7gHKtNjvo82hkKQY9sUr-1" value="" style="rounded=0;whiteSpace=wrap;html=1;" vertex="1" parent="1">
          <mxGeometry x="40" y="40" width="440" height="460" as="geometry" />
        </mxCell>
        <mxCell id="7gHKtNjvo82hkKQY9sUr-2" value="&amp;nbsp; &amp;nbsp; Home&amp;nbsp; &amp;nbsp; About&amp;nbsp; &amp;nbsp; Project Plan" style="rounded=0;whiteSpace=wrap;html=1;align=left;" vertex="1" parent="1">
          <mxGeometry x="40" y="40" width="440" height="50" as="geometry" />
        </mxCell>
        <mxCell id="7gHKtNjvo82hkKQY9sUr-4" value="Logo" style="ellipse;whiteSpace=wrap;html=1;" vertex="1" parent="1">
          <mxGeometry x="200" y="100" width="120" height="80" as="geometry" />
        </mxCell>
        <mxCell id="7gHKtNjvo82hkKQY9sUr-5" value="3" style="ellipse;whiteSpace=wrap;html=1;aspect=fixed;" vertex="1" parent="1">
          <mxGeometry x="70" y="230" width="40" height="40" as="geometry" />
        </mxCell>
        <mxCell id="7gHKtNjvo82hkKQY9sUr-6" value="1" style="ellipse;whiteSpace=wrap;html=1;aspect=fixed;" vertex="1" parent="1">
          <mxGeometry x="70" y="350" width="40" height="40" as="geometry" />
        </mxCell>
        <mxCell id="7gHKtNjvo82hkKQY9sUr-7" value="2" style="ellipse;whiteSpace=wrap;html=1;aspect=fixed;" vertex="1" parent="1">
          <mxGeometry x="70" y="290" width="40" height="40" as="geometry" />
        </mxCell>
        <mxCell id="7gHKtNjvo82hkKQY9sUr-9" value="" style="rounded=0;whiteSpace=wrap;html=1;" vertex="1" parent="1">
          <mxGeometry x="130" y="275" width="40" height="70" as="geometry" />
        </mxCell>
        <mxCell id="7gHKtNjvo82hkKQY9sUr-10" value="" style="shape=umlActor;verticalLabelPosition=bottom;verticalAlign=top;html=1;outlineConnect=0;" vertex="1" parent="1">
          <mxGeometry x="140" y="300" width="20" height="45" as="geometry" />
        </mxCell>
        <mxCell id="7gHKtNjvo82hkKQY9sUr-11" value="Login:&lt;div&gt;&lt;br&gt;&lt;/div&gt;&lt;div&gt;username&lt;br&gt;&lt;br&gt;password&lt;br&gt;&lt;br&gt;Login&lt;br&gt;&lt;br&gt;Request Acess&lt;/div&gt;" style="rounded=0;whiteSpace=wrap;html=1;" vertex="1" parent="1">
          <mxGeometry x="300" y="222.5" width="120" height="200" as="geometry" />
        </mxCell>
      </root>
    </mxGraphModel>
  </diagram>
</mxfile>
